<?xml version="1.0" standalone="no"?>
<!DOCTYPE svg PUBLIC "-//W3C//DTD SVG 20010904//EN"
 "http://www.w3.org/TR/2001/REC-SVG-20010904/DTD/svg10.dtd">
<svg version="1.0" xmlns="http://www.w3.org/2000/svg"
 width="400.000000pt" height="159.000000pt" viewBox="0 0 400.000000 159.000000"
 preserveAspectRatio="xMidYMid meet">

<g transform="translate(0.000000,159.000000) scale(0.100000,-0.100000)"
fill="#FFFFFF" stroke="none">
<path d="M3415 1570 c-3 -5 -1 -19 5 -31 16 -29 7 -33 -23 -9 -31 25 -60 26
-55 3 3 -14 69 -70 148 -126 37 -26 20 -29 -61 -12 -90 20 -132 14 -212 -28
l-62 -32 -195 0 c-210 0 -228 -4 -276 -57 -61 -66 -66 -117 -29 -272 28 -114
27 -143 -6 -229 -16 -39 -17 -56 -9 -93 6 -25 13 -100 16 -166 3 -69 11 -135
19 -154 12 -29 19 -34 49 -34 19 0 36 5 38 11 2 7 -4 35 -14 64 -19 59 -36
230 -19 204 5 -8 19 -58 29 -110 11 -51 27 -111 36 -132 14 -32 20 -37 51 -37
18 0 37 4 40 10 3 5 -8 39 -25 74 -39 83 -70 203 -70 275 0 47 7 71 46 148 44
88 47 92 68 78 31 -19 142 -51 209 -59 65 -8 61 2 47 -131 -6 -63 -22 -123
-50 -199 -44 -121 -47 -141 -24 -174 21 -31 81 -28 76 3 -15 83 -13 106 11
159 14 31 41 76 61 101 19 25 38 59 41 76 4 16 10 29 14 29 16 0 31 -105 31
-211 0 -141 14 -179 64 -179 46 0 51 11 27 59 -12 22 -23 63 -27 93 -6 54 -6
52 70 303 12 39 36 90 54 114 18 24 37 61 44 83 l11 38 53 -6 52 -7 47 51 c25
27 60 56 77 63 27 11 35 10 74 -11 l43 -24 43 30 c50 35 57 59 33 119 -17 46
-27 52 -130 81 -78 21 -86 30 -39 43 53 15 89 44 81 65 -6 15 -9 15 -36 1 -41
-21 -43 -20 -24 19 9 20 13 42 9 53 -7 17 -8 17 -24 -3 -9 -12 -24 -35 -34
-52 -16 -29 -74 -69 -85 -58 -3 3 5 21 17 40 12 20 19 40 15 46 -12 19 -34 10
-50 -20 -9 -16 -17 -30 -18 -30 -1 0 -2 24 -2 52 0 42 -4 53 -17 56 -15 3 -18
-4 -18 -35 0 -21 -5 -45 -10 -53 -9 -13 -11 -13 -20 0 -6 8 -15 32 -22 53 -8
26 -16 37 -27 35 -17 -4 -19 -28 -7 -65 14 -44 -13 -22 -59 47 -46 69 -58 79
-70 60z m13 -216 c68 -14 89 -15 120 -5 27 9 44 10 65 2 16 -6 39 -11 53 -11
19 0 24 -5 24 -25 0 -30 25 -43 52 -26 15 9 33 7 91 -9 40 -12 80 -24 89 -26
22 -7 42 -73 27 -90 -20 -24 -49 -26 -82 -5 -29 18 -38 19 -72 8 -24 -7 -60
-33 -92 -64 -57 -57 -68 -61 -114 -37 -40 20 -55 13 -64 -28 -9 -42 -41 -105
-71 -141 -13 -16 -24 -34 -24 -40 0 -22 -62 -207 -70 -207 -9 0 -38 136 -48
225 -5 43 -11 60 -22 60 -8 0 -17 -11 -18 -24 -4 -24 -4 -24 -101 -18 -112 8
-185 27 -258 67 -55 31 -63 29 -78 -20 -16 -54 -132 -260 -147 -260 -14 0 -13
47 3 90 32 87 33 122 3 256 -26 116 -27 128 -14 166 9 25 31 54 53 72 l39 31
197 0 197 0 54 29 c45 24 80 37 120 45 3 1 42 -6 88 -15z m-155 -516 c4 -15
-40 -156 -56 -175 -20 -26 -23 -11 -15 75 11 109 12 112 42 112 13 0 26 -6 29
-12z"/>
<path d="M250 1337 c-137 -38 -220 -149 -220 -294 0 -105 32 -154 109 -169
l33 -7 -29 54 c-24 47 -28 65 -28 139 0 75 4 91 30 138 30 55 107 114 125 96
4 -5 53 -127 109 -272 l101 -263 0 -209 0 -210 75 0 75 0 0 212 0 211 101 276
c56 152 104 282 106 289 4 8 -6 12 -30 12 l-34 0 -83 -242 c-45 -134 -85 -246
-89 -250 -3 -4 -49 106 -101 245 l-96 252 -54 2 c-30 1 -75 -4 -100 -10z"/>
<path d="M1721 1001 c-19 -10 -47 -35 -62 -56 l-29 -39 0 52 0 52 -70 0 -70 0
0 -232 c0 -204 -3 -238 -19 -273 -31 -68 -70 -87 -107 -50 l-24 24 0 266 0
265 -70 0 -70 0 0 -235 c0 -248 -5 -280 -48 -318 -31 -28 -81 -25 -109 7 -23
27 -23 29 -23 287 l0 259 -70 0 -70 0 0 -251 c0 -154 4 -268 11 -295 15 -60
62 -109 119 -124 81 -22 138 -1 189 71 28 38 30 39 37 17 31 -103 159 -129
228 -47 l26 31 0 -36 0 -36 70 0 70 0 0 249 0 249 35 31 c39 34 79 40 111 16
45 -34 94 -5 94 58 0 68 -75 97 -149 58z"/>
<path d="M1942 743 c3 -257 4 -270 26 -315 50 -102 185 -128 266 -53 l26 24 0
-39 c0 -37 -3 -41 -42 -61 -114 -57 -158 -153 -108 -234 37 -59 134 -78 201
-39 56 33 81 91 87 200 l5 93 53 22 c80 32 112 76 139 187 13 52 13 52 -11 52
-26 0 -29 -5 -38 -61 -9 -51 -44 -99 -91 -126 -22 -13 -43 -23 -47 -23 -5 0
-8 144 -8 320 l0 320 -70 0 -70 0 0 -246 c0 -274 -3 -289 -67 -319 -28 -14
-37 -14 -60 -3 -50 24 -53 43 -53 316 l0 252 -71 0 -71 0 4 -267z m313 -631
c-3 -12 -17 -28 -31 -34 -20 -10 -29 -8 -52 9 -53 39 -38 97 41 154 l42 31 3
-69 c2 -37 0 -78 -3 -91z"/>
</g>
</svg>
